# xmcd
#
# Track frame offsets: 
#        150
#        18547
#        39501
#        64999
#        84859
#        109759
#        125500
#        153454
#        172839
#        200211
#        223939
#        270029
#
# Disc length: 4178 seconds
#
# Revision: 0
# Processed by: cddbd v1.4PL0 Copyright (c) Steve Scherf et al.
# Submitted via: ExactAudioCopy v0.90b3
#
DISCID=a210500c
DTITLE=Tubesnakes - Texas Minded
DYEAR=2002
DGENRE=
TTITLE0=In your mind
TTITLE1=Woman with a gun
TTITLE2=You don't know lovin yet
TTITLE3=Getting of this ride
TTITLE4=Fever
TTITLE5=Matchbox
TTITLE6=But my babe
TTITLE7=Oldest blues of all
TTITLE8=All beat up over you
TTITLE9=Come on in this house
TTITLE10=Love that burns
TTITLE11=Long shot
EXTD=
EXTT0=
EXTT1=
EXTT2=
EXTT3=
EXTT4=
EXTT5=
EXTT6=
EXTT7=
EXTT8=
EXTT9=
EXTT10=
EXTT11=
PLAYORDER=
